<svg xmlns="http://www.w3.org/2000/svg" width="253" height="253" viewBox="0 0 253 253"><defs><mask id="yk6yb" width="2" height="2" x="-1" y="-1"><path fill="#fff" d="M22 18h200v200H22z"/><path d="M122 18c55.228 0 100 44.771 100 100 0 55.228-44.772 100-100 100-55.229 0-100-44.772-100-100C22 62.77 66.77 18 122 18z"/></mask><filter id="yk6ya" width="304.5" height="308.9" x="-28" y="-32" filterUnits="userSpaceOnUse"><feOffset dx="4.5" dy="8.9" in="SourceGraphic" result="FeOffset1023Out"/><feGaussianBlur in="FeOffset1023Out" result="FeGaussianBlur1024Out" stdDeviation="16 16"/></filter></defs><g><g><g filter="url(#yk6ya)"><path fill="none" d="M122 18c55.228 0 100 44.771 100 100 0 55.228-44.772 100-100 100-55.229 0-100-44.772-100-100C22 62.77 66.77 18 122 18z" mask="url(&quot;#yk6yb&quot;)"/><path fill-opacity=".05" d="M122 18c55.228 0 100 44.771 100 100 0 55.228-44.772 100-100 100-55.229 0-100-44.772-100-100C22 62.77 66.77 18 122 18z"/></g><path fill="#fff" d="M122 18c55.228 0 100 44.771 100 100 0 55.228-44.772 100-100 100-55.229 0-100-44.772-100-100C22 62.77 66.77 18 122 18z"/></g></g></svg>